<svg height="512pt" viewBox="0 0 511 512" width="512pt" xmlns="http://www.w3.org/2000/svg"><path d="m218.796875 66.578125c4.167969 0 7.542969-3.375 7.542969-7.542969 0-4.167968-3.375-7.542968-7.542969-7.542968h-65.640625c-4.167969 0-7.542969 3.375-7.542969 7.542968 0 4.167969 3.375 7.542969 7.542969 7.542969h25.277344v21.910156c-15.875.757813-31.324219 4.15625-46.015625 10.128907-3.859375 1.570312-5.714844 5.972656-4.144531 9.832031 1.570312 3.859375 5.96875 5.714843 9.832031 4.144531 80.550781-32.769531 173.8125 24.832031 173.8125 116.046875v20.757813h-251.878907v-20.757813c0-40.671875 19.875-78.964844 53.164063-102.429687 3.40625-2.402344 4.222656-7.109376 1.820313-10.515626-2.402344-3.402343-7.105469-4.21875-10.511719-1.816406-37.296875 26.289063-59.5625 69.1875-59.5625 114.761719v23.90625c-21.320313 12.136719-12.976563 45.539063 11.878906 45.539063h258.296875c13.277344 0 24.070312-10.804688 24.070312-24.074219v-.53125c0-8.960938-4.910156-16.785157-12.1875-20.929688v-23.910156c0-75.078125-59.277343-136.570313-133.484374-140.148437v-21.914063zm105.308594 206.90625v.53125c0 4.949219-4.023438 8.984375-8.980469 8.984375h-258.296875c-4.945313 0-8.980469-4.035156-8.980469-8.984375v-.53125c0-4.933594 3.988282-8.941406 8.894532-8.992187h258.46875c4.917968.050781 8.894531 4.058593 8.894531 8.992187zm0 0"/><path d="m46.59375 350.152344h215.71875c4.167969 0 7.546875-3.378906 7.546875-7.542969 0-4.167969-3.378906-7.546875-7.546875-7.546875h-215.71875c-4.167969 0-7.542969 3.378906-7.542969 7.546875 0 4.164063 3.375 7.542969 7.542969 7.542969zm0 0"/><path d="m257.117188 389.441406c0-4.167968-3.378907-7.542968-7.542969-7.542968h-202.980469c-4.167969 0-7.542969 3.375-7.542969 7.542968 0 4.167969 3.375 7.542969 7.542969 7.542969h202.980469c4.164062 0 7.542969-3.375 7.542969-7.542969zm0 0"/><path d="m46.589844 428.730469c-4.164063 0-7.542969 3.382812-7.542969 7.546875 0 4.164062 3.378906 7.542968 7.542969 7.542968h150.882812c4.175782 0 7.546875-3.378906 7.546875-7.542968 0-4.164063-3.371093-7.546875-7.546875-7.546875zm0 0"/><path d="m227.652344 443.820312h41.371094c4.164062 0 7.542968-3.378906 7.542968-7.542968 0-4.164063-3.378906-7.546875-7.542968-7.546875h-41.371094c-4.164063 0-7.546875 3.382812-7.546875 7.546875 0 4.164062 3.382812 7.542968 7.546875 7.542968zm0 0"/><path d="m496.6875 393.457031c.171875 4.152344 3.632812 7.410157 7.835938 7.230469 4.164062-.160156 7.402343-3.671875 7.242187-7.835938-2.832031-71.179687-69.816406-123.320312-140.3125-106.894531v-265.234375c0-11.429687-9.304687-20.722656-20.730469-20.722656h-134.890625c-4.175781 0-7.542969 3.378906-7.542969 7.542969 0 4.164062 3.367188 7.546875 7.542969 7.546875h134.890625c3.109375 0 5.640625 2.523437 5.640625 5.632812v269.828125c-89.847656 34.523438-99.460937 158.429688-15.507812 206.359375h-319.625c-3.105469 0-5.640625-2.523437-5.640625-5.632812v-470.554688c0-3.109375 2.535156-5.632812 5.640625-5.632812h164.425781c4.164062 0 7.542969-3.382813 7.542969-7.546875 0-4.164063-3.378907-7.542969-7.542969-7.542969h-164.425781c-11.425781 0-20.730469 9.292969-20.730469 20.722656v470.554688c0 11.429687 9.304688 20.722656 20.730469 20.722656h329.492187c5.160156 0 9.878906-1.890625 13.519532-5.039062 63.019531 19.019531 128.679687-18.8125 144.285156-82.082032.996094-4.042968-1.480469-8.136718-5.523438-9.132812-4.042968-.996094-8.136718 1.480468-9.132812 5.523437-18.601563 75.488281-112.597656 100.449219-166.667969 46.378907-18.757813-18.769532-29.089844-43.703126-29.089844-70.238282 0-87.546875 106.636719-133.125 169.5625-70.234375 17.714844 17.714844 28.015625 41.253907 29.011719 66.28125zm0 0"/><path d="m359.367188 458.109375c6.042968 0 11.726562-2.351563 16.003906-6.625l22.066406-22.066406 21.765625 21.765625c8.5 8.496094 22.453125 9.304687 31.523437 1.046875 9.5-8.644531 9.988282-23.554688.785157-32.753907l-22.066407-22.066406 21.765626-21.765625c4.339843-4.339843 6.832031-10.34375 6.832031-16.46875 0-19.960937-24.355469-30.023437-38.539063-15.839843l-22.066406 22.066406-21.765625-21.761719c-14.394531-14.402344-38.9375-4.570313-38.9375 15.699219 0 6.046875 2.355469 11.730468 6.628906 16.003906l22.066407 22.066406-21.761719 21.765625c-14.324219 14.316407-4.710938 38.933594 15.699219 38.933594zm-5.03125-28.265625 25.359374-25.359375c3.910157-3.910156 3.910157-10.234375 0-14.148437l-25.660156-25.660157c-3.003906-3-2.984375-7.964843.269532-10.925781 3.046874-2.773438 7.832031-2.3125 10.699218.558594l25.367188 25.367187c3.898437 3.890625 10.210937 3.914063 14.140625-.007812 25.8125-24.820313 25.542969-27.871094 31-27.871094 6.871093 0 9.949219 8.261719 5.027343 13.183594l-25.359374 25.359375c-.078126.117187-2.929688 2.625-2.929688 7.070312 0 2.671875 1.042969 5.183594 2.929688 7.074219 24.824218 25.8125 27.871093 25.539063 27.871093 30.996094 0 6.914062-8.273437 9.941406-13.179687 5.03125l-25.367188-25.363281c-3.921875-3.917969-10.253906-3.890626-14.140625.003906l-25.660156 25.660156c-1.425781 1.425781-3.320313 2.210938-5.335937 2.210938-6.957032 0-9.914063-8.300782-5.03125-13.179688zm0 0"/></svg>