<?xml version="1.0"?>
<svg xmlns="http://www.w3.org/2000/svg" viewBox="0 0 512 512" width="26px" height="26px"><g><g id="outline"><path d="M260.578,165.516a8,8,0,1,0-9.156,13.125A104.137,104.137,0,0,1,296,264a8,8,0,0,0,16,0A120.166,120.166,0,0,0,260.578,165.516Z" data-original="#000000" class="active-path" data-old_color="#000000" fill="#FFCC00"/><path d="M226.289,148.977a119.358,119.358,0,0,0-17.156-3.766,8,8,0,0,0-2.266,15.844,102.348,102.348,0,0,1,14.844,3.25,8.1,8.1,0,0,0,2.289.336,8,8,0,0,0,2.289-15.664Z" data-original="#000000" class="active-path" data-old_color="#000000" fill="#FFCC00"/><path d="M488,152H464V92l28.8-21.6A8,8,0,1,0,483.2,57.6l-32,24A7.992,7.992,0,0,0,448,88v64H431.191A40,40,0,1,0,384,199.191V352H332.945l8-16H344a24,24,0,0,0,0-48V264c0-73.568-52.548-135.066-122.074-149.009a32,32,0,1,0-59.852,0C92.548,128.934,40,190.432,40,264v24a24,24,0,0,0,0,48h3.055l8,16H24a8,8,0,0,0-8,8v80a8,8,0,0,0,8,8H488a8,8,0,0,0,8-8V160A8,8,0,0,0,488,152Zm-56.809,16H448v40H400v-8.809A40.117,40.117,0,0,0,431.191,168ZM400,182.526V168h14.526A23.97,23.97,0,0,1,400,182.526ZM368,160a23.941,23.941,0,0,1,46.526-8H392a8,8,0,0,0-8,8v22.525A23.959,23.959,0,0,1,368,160ZM192,88a15.959,15.959,0,0,1,13.407,24.679C200.981,112.29,196.525,112,192,112s-8.981.29-13.407.679A15.959,15.959,0,0,1,192,88ZM56,264c0-74.992,61.008-136,136-136s136,61.008,136,136v24H56ZM40,320a8,8,0,0,1,0-16H344a8,8,0,0,1,0,16Zm283.055,16-8,16H68.945l-8-16ZM480,432H32V368H480Zm0-80H400V224h80Zm0-144H464V168h16Z" data-original="#000000" class="active-path" data-old_color="#000000" fill="#FFCC00"/><path d="M411.3,301.148l15.031,28.25a7.992,7.992,0,0,0,7.07,4.243,7.911,7.911,0,0,0,3.75-.938l28.25-15.031a8,8,0,0,0,3.3-10.82L458.033,286.8c.066-.172.186-.307.24-.486l9.352-30.6a7.988,7.988,0,0,0-5.313-9.984l-30.6-9.352a8,8,0,0,0-9.984,5.312l-9.352,30.6a7.988,7.988,0,0,0,5.312,9.984l7.656,2.34L414.6,290.328A8,8,0,0,0,411.3,301.148Zm23.39-47.132,15.3,4.671-4.672,15.3-15.3-4.672Zm8.618,39.164,7.515,14.125L436.7,314.82,429.18,300.7Z" data-original="#000000" class="active-path" data-old_color="#000000" fill="#FFCC00"/></g></g> </svg>
